<svg xmlns="http://www.w3.org/2000/svg" xmlns:xlink="http://www.w3.org/1999/xlink" width="36" height="36" viewBox="0 0 36 36">
  <defs>
    <clipPath id="clip-path">
      <rect id="Rectangle_3567" data-name="Rectangle 3567" width="36" height="36" transform="translate(1316 869)" fill="#fff"/>
    </clipPath>
  </defs>
  <g id="Mask_Group_27" data-name="Mask Group 27" transform="translate(-1316 -869)" clip-path="url(#clip-path)">
    <g id="chat-speech-bubbles" transform="translate(1317 873)">
      <g id="Group_411" data-name="Group 411" transform="translate(0 0)">
        <path id="Path_7277" data-name="Path 7277" d="M13.764,3.478C6.162,3.478,0,8.217,0,14.066a9.475,9.475,0,0,0,3.894,7.38c-.14,1.944-.608,4.322-1.963,5.6,2.7,0,5.455-1.69,7.2-3.011a17.494,17.494,0,0,0,4.635.616c7.6,0,13.764-4.737,13.764-10.588S21.367,3.478,13.764,3.478Z" transform="translate(0 0.757)" fill="#fff"/>
        <path id="Path_7278" data-name="Path 7278" d="M26.086,17.332a8.741,8.741,0,0,0,1.821-5.266c0-5.849-6.162-10.588-13.764-10.588a16.389,16.389,0,0,0-8.8,2.444,18.9,18.9,0,0,1,3.5-.326c8.187,0,14.823,5.216,14.823,11.647a10.006,10.006,0,0,1-2.778,6.791c1.739,1.321,4.5,3.015,7.2,3.015C26.173,23.228,26.035,19.192,26.086,17.332Z" transform="translate(5.975 -1.478)" fill="#fff"/>
      </g>
    </g>
  </g>
</svg>
