<svg xmlns="http://www.w3.org/2000/svg" xmlns:xlink="http://www.w3.org/1999/xlink" width="48" height="48" viewBox="0 0 48 48">
  <defs>
    <clipPath id="clip-path">
      <rect id="Rectangle_3326" data-name="Rectangle 3326" width="48" height="48" transform="translate(-17678 -14799)" fill="#4da42f"/>
    </clipPath>
  </defs>
  <g id="course-list-icon6" transform="translate(17678 14799)" clip-path="url(#clip-path)">
    <g id="Group_7477" data-name="Group 7477" transform="translate(-18561 -16134)">
      <path id="Path_8147" data-name="Path 8147" d="M177.977,202.667a7.317,7.317,0,0,0-7.31,7.31.914.914,0,1,0,1.827,0,5.489,5.489,0,0,1,5.482-5.482.914.914,0,1,0,0-1.827Z" transform="translate(736.31 1143.649)" fill="#4da42f"/>
      <g id="head-2" transform="translate(889 1338)">
        <path id="Path_8148" data-name="Path 8148" d="M30.91,41.02H15.528a.855.855,0,0,1-.855-.855V34.482l-4.126,1.253a2.961,2.961,0,0,1-1,.157,3.422,3.422,0,0,1-3.418-3.418V27.346H2.709A1.69,1.69,0,0,1,1,25.637a1.728,1.728,0,0,1,.268-.916l3.993-6.338a5.6,5.6,0,0,0,.867-3A15.382,15.382,0,1,1,34.1,24.219a12.735,12.735,0,0,0-2.331,7.358v8.588a.855.855,0,0,1-.855.855ZM16.382,39.31H30.055V31.576A14.425,14.425,0,0,1,32.7,23.236,13.672,13.672,0,1,0,7.837,15.382a7.322,7.322,0,0,1-1.13,3.912L2.714,25.632l4.268.005a.855.855,0,0,1,.855.855v5.982a1.71,1.71,0,0,0,1.709,1.709,1.383,1.383,0,0,0,.463-.07l5.271-1.6a.855.855,0,0,1,1.1.819Z" transform="translate(-1 0)" fill="#4da42f"/>
      </g>
    </g>
  </g>
</svg>
