<svg xmlns="http://www.w3.org/2000/svg" xmlns:xlink="http://www.w3.org/1999/xlink" width="48" height="48" viewBox="0 0 48 48">
  <defs>
    <clipPath id="clip-path">
      <rect id="Rectangle_3329" data-name="Rectangle 3329" width="48" height="48" transform="translate(-16959 -14799)" fill="#4da42f"/>
    </clipPath>
  </defs>
  <g id="course-list-icon8" transform="translate(16959 14799)" clip-path="url(#clip-path)">
    <g id="web-browser" transform="translate(-16953 -14793)">
      <path id="Path_8161" data-name="Path 8161" d="M32.954,34.721H3.832A3.836,3.836,0,0,1,0,30.889V4.832A3.836,3.836,0,0,1,3.832,1H32.954a3.836,3.836,0,0,1,3.832,3.832V30.889A3.836,3.836,0,0,1,32.954,34.721ZM3.832,2.533a2.3,2.3,0,0,0-2.3,2.3V30.889a2.3,2.3,0,0,0,2.3,2.3H32.954a2.3,2.3,0,0,0,2.3-2.3V4.832a2.3,2.3,0,0,0-2.3-2.3Z" fill="#4da42f"/>
      <path id="Path_8162" data-name="Path 8162" d="M36.02,6.533H.766A.766.766,0,1,1,.766,5H36.02a.766.766,0,0,1,0,1.533Z" transform="translate(0 2.131)" fill="#4da42f"/>
      <path id="Path_8163" data-name="Path 8163" d="M12.266,23.428a.767.767,0,0,1-.766-.766V10.016a.766.766,0,1,1,1.533,0V22.662A.767.767,0,0,1,12.266,23.428Z" transform="translate(6.127 4.395)" fill="#4da42f"/>
      <path id="Path_8164" data-name="Path 8164" d="M14.93,24.857a.78.78,0,0,1-.48-.167c-1.922-1.537-3.775-1.772-5.668-.707a1.53,1.53,0,0,1-1.533-.011,1.508,1.508,0,0,1-.75-1.312V11.073A2.237,2.237,0,0,1,7.466,9.2a6.156,6.156,0,0,1,7.465.138A6.156,6.156,0,0,1,22.395,9.2a2.233,2.233,0,0,1,.966,1.875V22.661a1.5,1.5,0,0,1-.75,1.311,1.523,1.523,0,0,1-1.533.011c-1.888-1.064-3.746-.831-5.668.707a.773.773,0,0,1-.48.169Zm-3.815-3.069a6.561,6.561,0,0,1,3.815,1.343,6.036,6.036,0,0,1,6.9-.486l0-11.572a.717.717,0,0,0-.287-.6c-2.054-1.373-4.059-1.237-6.133.422a.767.767,0,0,1-.958,0c-2.074-1.658-4.077-1.793-6.133-.422a.718.718,0,0,0-.285.6V22.661A6.2,6.2,0,0,1,11.115,21.789Z" transform="translate(3.463 3.732)" fill="#4da42f"/>
    </g>
  </g>
</svg>
