<svg xmlns="http://www.w3.org/2000/svg" xmlns:xlink="http://www.w3.org/1999/xlink" width="48" height="48" viewBox="0 0 48 48">
  <defs>
    <clipPath id="clip-path">
      <rect id="Rectangle_3322" data-name="Rectangle 3322" width="48" height="48" transform="translate(-17322 -14900)" fill="#4da42f"/>
    </clipPath>
  </defs>
  <g id="course-list-icon3" transform="translate(17322 14900)" clip-path="url(#clip-path)">
    <g id="heart-beat" transform="translate(-17319 -14896)">
      <g id="Group_7465" data-name="Group 7465" transform="translate(12.407 9.861)">
        <path id="Path_8134" data-name="Path 8134" d="M16.748,23.725h-.016a.887.887,0,0,1-.806-.557L12.6,14.863H7.886a.886.886,0,1,1,0-1.772H13.2a.886.886,0,0,1,.822.557l2.765,6.913L23.028,6.527A.892.892,0,0,1,23.794,6a.858.858,0,0,1,.814.445l6.835,11.962h4.8a.886.886,0,0,1,0,1.772H30.928a.886.886,0,0,1-.769-.447L23.937,8.845,17.558,23.2a.888.888,0,0,1-.81.526Z" transform="translate(-7 -5.999)" fill="#4da42f"/>
      </g>
      <g id="Group_7466" data-name="Group 7466" transform="translate(0 1)">
        <path id="Path_8135" data-name="Path 8135" d="M19.5,38.221a.887.887,0,0,1-.411-.1C18.306,37.711,0,27.936,0,11.688A10.7,10.7,0,0,1,10.688,1,10.621,10.621,0,0,1,19.5,5.458a10.77,10.77,0,0,1,19.5,6.23,19.882,19.882,0,0,1-.3,3.508.886.886,0,1,1-1.744-.315,17.831,17.831,0,0,0,.269-3.192,8.924,8.924,0,0,0-8.915-8.915,8.76,8.76,0,0,0-8.013,4.819.923.923,0,0,1-1.593,0,8.758,8.758,0,0,0-8.011-4.819,8.924,8.924,0,0,0-8.915,8.915C1.772,25.582,16.8,34.783,19.5,36.321a47,47,0,0,0,9.284-7.061.886.886,0,1,1,1.246,1.26,47.121,47.121,0,0,1-10.119,7.6.882.882,0,0,1-.411.1Z" transform="translate(0 -1)" fill="#4da42f"/>
      </g>
    </g>
  </g>
</svg>
