<svg xmlns="http://www.w3.org/2000/svg" width="109.998" height="33.763" viewBox="0 0 109.998 33.763">
  <g id="white-logo" transform="translate(-0.001)">
    <path id="Path_7889" data-name="Path 7889" d="M9.883,2.287A8.215,8.215,0,0,0,18.037-3.8H15.377A5.858,5.858,0,0,1,9.883-.258,5.982,5.982,0,0,1,3.889-6.432a5.961,5.961,0,0,1,5.994-6.174A5.917,5.917,0,0,1,15.4-9.153H18a8.136,8.136,0,0,0-8.121-6A8.506,8.506,0,0,0,1.2-6.432a8.511,8.511,0,0,0,8.68,8.718Zm10.585-.366H23.1V-14.784h-2.63ZM34.336-.511A3.157,3.157,0,0,1,30.823-4v-8.406h5.239v-2.376H30.823v-3.537h-.412l-5.158,5.442v.471h2.94v8.49c0,3.622,2.215,5.84,5.8,5.84h2.164V-.511ZM51.172-14.784,45.58-2.14,39.64-14.784H36.779L44.212.782l-.6,1.252c-1.344,2.791-2.132,3.474-4.368,3.474H37.9V7.884h1.573c3.152,0,4.742-1.315,6.543-5.272l7.962-17.4Z" transform="translate(56.025 25.879)" fill="#fff"/>
    <path id="Polygon_1" data-name="Polygon 1" d="M4.972,0,9.944,6.629H0Z" transform="translate(83.123) rotate(90)" fill="#fff"/>
    <path id="Path_7891" data-name="Path 7891" d="M1386.767-20.57v6.933a8.057,8.057,0,0,0-4.584-1.384A8.557,8.557,0,0,0,1373.4-6.2a8.582,8.582,0,0,0,8.783,8.851,7.979,7.979,0,0,0,5.232-1.889l.533,1.391h3.336V-20.57Zm-4.216,18.953A4.437,4.437,0,0,1,1378-6.2a4.437,4.437,0,0,1,4.548-4.579A4.444,4.444,0,0,1,1387.1-6.2,4.448,4.448,0,0,1,1382.552-1.617Zm18.94,4.247c4.725,0,7.835-3.015,7.835-7.526v-9.652h-4.517v9.138c0,2.345-1.226,3.794-3.318,3.794s-3.344-1.417-3.344-3.794v-9.138h-4.517V-4.9C1393.631-.385,1396.772,2.63,1401.492,2.63Z" transform="translate(-1354.467 25.727)" fill="#fff"/>
    <g id="Group_7451" data-name="Group 7451" transform="translate(1.268 24.178)">
      <path id="map-marker" d="M103.177,843.4a46.975,46.975,0,0,1-6.083,8.724,1.509,1.509,0,0,1-2.356.075,34.17,34.17,0,0,1-6.318-8.875c-.435-.961,3.369,2.288,7.227,2.261C99.66,845.557,103.734,842.3,103.177,843.4Z" transform="translate(-88.386 -843.146)" fill="#c4c4c4"/>
    </g>
    <path id="Path_7896" data-name="Path 7896" d="M18.283,406.818a8.507,8.507,0,0,0-8.648-8.766,8.827,8.827,0,0,0,0,17.651,8.55,8.55,0,0,0,8.291-5.962H13.178a3.965,3.965,0,0,1-3.544,1.938,3.894,3.894,0,0,1-4.082-3.535H18.2a10.462,10.462,0,0,0,.087-1.324Zm-8.649-4.91a4.111,4.111,0,0,1,4.132,3.15h-8.1A3.919,3.919,0,0,1,9.634,401.907Z" transform="translate(-0.969 -387.314)" fill="#fff"/>
  </g>
</svg>
